<svg width="882" height="446" viewBox="0 0 882 446" fill="none" xmlns="http://www.w3.org/2000/svg">
<path d="M1.19347 424.595C0.651624 424.488 0.125747 424.841 0.0188944 425.383C-0.0879579 425.924 0.264677 426.45 0.806527 426.557L1 425.576L1.19347 424.595ZM586.954 296.987L587.82 297.487L586.954 296.987ZM881.657 8.539C882.073 8.17616 882.117 7.54448 881.754 7.12812L875.841 0.343012C875.478 -0.0733557 874.846 -0.116745 874.43 0.2461C874.014 0.608945 873.97 1.24062 874.333 1.65699L879.589 7.68819L873.558 12.9441C873.142 13.3069 873.098 13.9386 873.461 14.355C873.824 14.7714 874.456 14.8147 874.872 14.4519L881.657 8.539ZM6.67382 427.691C7.21647 427.794 7.73965 427.437 7.84237 426.894C7.9451 426.352 7.58847 425.828 7.04582 425.726L6.85982 426.708L6.67382 427.691ZM19.0517 427.907C18.5077 427.813 17.9897 428.177 17.8948 428.721C17.7999 429.265 18.1641 429.783 18.7082 429.878L18.8799 428.893L19.0517 427.907ZM30.7758 431.898C31.3211 431.986 31.8342 431.615 31.9218 431.07C32.0094 430.525 31.6384 430.011 31.0931 429.924L30.9345 430.911L30.7758 431.898ZM43.0401 431.768C42.4937 431.687 41.9853 432.064 41.9044 432.61C41.8235 433.157 42.2008 433.665 42.7471 433.746L42.8936 432.757L43.0401 431.768ZM54.8103 435.459C55.3575 435.533 55.8615 435.15 55.9359 434.603C56.0103 434.055 55.6271 433.552 55.0798 433.477L54.945 434.468L54.8103 435.459ZM67.2056 435.055C66.6575 434.987 66.158 435.376 66.0898 435.924C66.0216 436.472 66.4107 436.972 66.9587 437.04L67.0822 436.048L67.2056 435.055ZM79.0086 438.471C79.5574 438.533 80.0526 438.138 80.1147 437.59C80.1768 437.041 79.7823 436.546 79.2335 436.484L79.1211 437.477L79.0086 438.471ZM91.3202 437.785C90.7708 437.729 90.2799 438.129 90.2237 438.678C90.1676 439.227 90.5674 439.718 91.1169 439.775L91.2185 438.78L91.3202 437.785ZM103.31 440.954C103.86 441.004 104.347 440.599 104.397 440.049C104.447 439.499 104.042 439.013 103.492 438.962L103.401 439.958L103.31 440.954ZM115.548 439.999C114.998 439.954 114.516 440.365 114.471 440.915C114.427 441.466 114.837 441.948 115.388 441.992L115.468 440.996L115.548 439.999ZM127.554 442.908C128.105 442.946 128.583 442.531 128.621 441.98C128.66 441.429 128.244 440.951 127.693 440.913L127.623 441.91L127.554 442.908ZM139.842 441.697C139.29 441.664 138.817 442.085 138.784 442.636C138.752 443.187 139.172 443.661 139.724 443.693L139.783 442.695L139.842 441.697ZM151.869 444.346C152.42 444.373 152.889 443.947 152.916 443.396C152.942 442.844 152.517 442.375 151.965 442.349L151.917 443.347L151.869 444.346ZM164.157 442.872C163.605 442.851 163.141 443.282 163.12 443.834C163.1 444.386 163.53 444.85 164.082 444.87L164.12 443.871L164.157 442.872ZM176.226 445.258C176.778 445.273 177.237 444.837 177.252 444.285C177.266 443.733 176.831 443.273 176.278 443.259L176.252 444.258L176.226 445.258ZM188.453 443.511C187.901 443.503 187.446 443.944 187.438 444.496C187.429 445.048 187.87 445.503 188.423 445.511L188.438 444.511L188.453 443.511ZM200.603 445.625C201.155 445.627 201.605 445.181 201.607 444.629C201.609 444.077 201.163 443.627 200.61 443.625L200.607 444.625L200.603 445.625ZM212.77 443.598C212.218 443.603 211.774 444.054 211.778 444.606C211.783 445.159 212.234 445.603 212.786 445.598L212.778 444.598L212.77 443.598ZM224.982 445.425C225.534 445.414 225.973 444.957 225.962 444.405C225.951 443.853 225.494 443.414 224.942 443.426L224.962 444.425L224.982 445.425ZM237.088 443.104C236.536 443.122 236.103 443.585 236.121 444.136C236.139 444.688 236.601 445.121 237.153 445.103L237.12 444.104L237.088 443.104ZM249.342 444.627C249.894 444.602 250.321 444.134 250.296 443.582C250.271 443.031 249.803 442.604 249.251 442.629L249.297 443.628L249.342 444.627ZM261.386 441.996C260.835 442.029 260.414 442.502 260.447 443.053C260.479 443.604 260.952 444.025 261.504 443.993L261.445 442.994L261.386 441.996ZM273.669 443.194C274.22 443.154 274.634 442.675 274.594 442.124C274.554 441.573 274.075 441.159 273.524 441.199L273.597 442.196L273.669 443.194ZM285.643 440.232C285.093 440.28 284.686 440.765 284.734 441.315C284.781 441.866 285.266 442.273 285.816 442.225L285.73 441.229L285.643 440.232ZM297.953 441.079C298.503 441.023 298.903 440.532 298.847 439.983C298.791 439.434 298.3 439.034 297.75 439.09L297.852 440.084L297.953 441.079ZM309.833 437.764C309.284 437.829 308.892 438.326 308.956 438.874C309.021 439.423 309.518 439.815 310.066 439.751L309.949 438.758L309.833 437.764ZM322.167 438.23C322.714 438.156 323.098 437.653 323.025 437.106C322.952 436.558 322.449 436.174 321.901 436.247L322.034 437.239L322.167 438.23ZM333.924 434.534C333.377 434.617 333.002 435.126 333.084 435.673C333.167 436.219 333.676 436.594 334.222 436.512L334.073 435.523L333.924 434.534ZM346.275 434.581C346.819 434.489 347.186 433.973 347.094 433.428C347.002 432.884 346.486 432.517 345.941 432.609L346.108 433.595L346.275 434.581ZM357.894 430.472C357.351 430.574 356.994 431.097 357.096 431.64C357.198 432.183 357.721 432.54 358.264 432.437L358.079 431.455L357.894 430.472ZM370.235 430.06C370.775 429.947 371.122 429.418 371.009 428.877C370.896 428.336 370.366 427.99 369.826 428.102L370.03 429.081L370.235 430.06ZM381.693 425.497C381.155 425.621 380.819 426.158 380.943 426.696C381.067 427.234 381.604 427.57 382.142 427.446L381.918 426.472L381.693 425.497ZM393.99 424.581C394.525 424.445 394.849 423.901 394.714 423.366C394.578 422.831 394.034 422.507 393.499 422.642L393.744 423.612L393.99 424.581ZM405.254 419.519C404.722 419.667 404.41 420.219 404.558 420.751C404.706 421.283 405.258 421.594 405.79 421.446L405.522 420.483L405.254 419.519ZM417.47 418.046C417.998 417.885 418.296 417.326 418.135 416.798C417.974 416.269 417.416 415.971 416.887 416.132L417.179 417.089L417.47 418.046ZM428.492 412.435C427.968 412.61 427.685 413.176 427.859 413.7C428.034 414.224 428.6 414.507 429.124 414.333L428.808 413.384L428.492 412.435ZM440.632 410.326C441.151 410.137 441.418 409.563 441.229 409.044C441.041 408.525 440.467 408.257 439.948 408.446L440.29 409.386L440.632 410.326ZM451.302 404.128C450.789 404.332 450.538 404.914 450.742 405.427C450.946 405.94 451.527 406.191 452.04 405.987L451.671 405.058L451.302 404.128ZM463.319 401.304C463.826 401.084 464.059 400.495 463.839 399.989C463.619 399.482 463.03 399.249 462.523 399.469L462.921 400.387L463.319 401.304ZM473.548 394.472C473.049 394.709 472.836 395.305 473.072 395.804C473.308 396.303 473.905 396.516 474.404 396.28L473.976 395.376L473.548 394.472ZM485.374 390.849C485.865 390.595 486.057 389.991 485.803 389.501C485.549 389.01 484.946 388.818 484.455 389.072L484.915 389.96L485.374 390.849ZM495.117 383.301C494.637 383.573 494.467 384.184 494.74 384.664C495.012 385.145 495.622 385.314 496.102 385.042L495.61 384.172L495.117 383.301ZM506.602 378.823C507.071 378.532 507.216 377.915 506.925 377.446C506.634 376.976 506.018 376.832 505.548 377.123L506.075 377.973L506.602 378.823ZM515.733 370.509C515.276 370.82 515.158 371.442 515.469 371.898C515.779 372.355 516.401 372.474 516.858 372.163L516.295 371.336L515.733 370.509ZM526.789 365.08C527.231 364.749 527.321 364.122 526.991 363.68C526.66 363.238 526.033 363.147 525.591 363.478L526.19 364.279L526.789 365.08ZM535.13 355.987C534.704 356.339 534.644 356.969 534.995 357.395C535.347 357.821 535.977 357.881 536.403 357.53L535.767 356.759L535.13 355.987ZM545.636 349.524C546.044 349.151 546.073 348.519 545.701 348.111C545.329 347.703 544.696 347.674 544.288 348.046L544.962 348.785L545.636 349.524ZM553.019 339.658C552.631 340.05 552.635 340.684 553.028 341.072C553.421 341.46 554.054 341.456 554.442 341.063L553.73 340.36L553.019 339.658ZM562.796 332.135C563.162 331.721 563.124 331.089 562.71 330.723C562.297 330.357 561.665 330.395 561.299 330.808L562.047 331.471L562.796 332.135ZM569.07 321.527C568.727 321.96 568.801 322.589 569.234 322.931C569.667 323.274 570.296 323.2 570.639 322.767L569.854 322.147L569.07 321.527ZM577.95 312.953C578.267 312.501 578.158 311.878 577.706 311.561C577.254 311.243 576.63 311.353 576.313 311.805L577.132 312.379L577.95 312.953ZM582.966 301.707C582.676 302.177 582.821 302.793 583.291 303.084C583.761 303.374 584.377 303.229 584.668 302.759L583.817 302.233L582.966 301.707ZM590.828 292.306C591.106 291.829 590.945 291.216 590.467 290.938C589.99 290.66 589.378 290.821 589.1 291.298L589.964 291.802L590.828 292.306ZM595.103 281.087C594.821 281.562 594.978 282.175 595.453 282.457C595.928 282.738 596.542 282.582 596.823 282.106L595.963 281.596L595.103 281.087ZM602.9 271.944C603.185 271.471 603.033 270.857 602.56 270.571C602.087 270.286 601.472 270.438 601.187 270.911L602.043 271.428L602.9 271.944ZM607.337 260.802C607.048 261.273 607.196 261.889 607.667 262.178C608.137 262.467 608.753 262.319 609.042 261.848L608.19 261.325L607.337 260.802ZM615.286 251.768C615.578 251.3 615.436 250.683 614.968 250.39C614.499 250.097 613.882 250.24 613.59 250.708L614.438 251.238L615.286 251.768ZM619.888 240.724C619.591 241.19 619.729 241.808 620.194 242.105C620.66 242.402 621.278 242.264 621.575 241.799L620.732 241.261L619.888 240.724ZM628.003 231.802C628.304 231.338 628.172 230.719 627.709 230.418C627.245 230.118 626.626 230.249 626.325 230.712L627.164 231.257L628.003 231.802ZM632.773 220.878C632.468 221.338 632.594 221.959 633.055 222.264C633.515 222.569 634.136 222.443 634.441 221.982L633.607 221.43L632.773 220.878ZM641.069 212.075C641.378 211.618 641.258 210.996 640.8 210.687C640.343 210.377 639.721 210.497 639.412 210.955L640.24 211.515L641.069 212.075ZM646.077 201.2C645.763 201.654 645.877 202.277 646.331 202.591C646.786 202.905 647.409 202.791 647.722 202.336L646.9 201.768L646.077 201.2ZM654.501 192.627C654.819 192.176 654.712 191.552 654.26 191.233C653.809 190.915 653.185 191.023 652.867 191.474L653.684 192.05L654.501 192.627ZM659.768 181.809C659.444 182.257 659.545 182.882 659.993 183.205C660.441 183.529 661.066 183.428 661.389 182.98L660.578 182.395L659.768 181.809ZM668.325 173.49C668.654 173.046 668.56 172.42 668.116 172.092C667.672 171.763 667.046 171.857 666.717 172.301L667.521 172.896L668.325 173.49ZM673.863 162.76C673.529 163.2 673.616 163.827 674.056 164.161C674.496 164.495 675.123 164.409 675.457 163.969L674.66 163.365L673.863 162.76ZM682.665 154.588C683.004 154.152 682.926 153.524 682.49 153.184C682.054 152.845 681.426 152.923 681.086 153.359L681.875 153.974L682.665 154.588ZM688.386 144.108C688.041 144.539 688.111 145.168 688.543 145.513C688.974 145.858 689.603 145.788 689.948 145.357L689.167 144.732L688.386 144.108ZM697.438 136.127C697.789 135.7 697.728 135.07 697.302 134.719C696.876 134.368 696.245 134.429 695.894 134.855L696.666 135.491L697.438 136.127ZM703.508 125.747C703.15 126.168 703.202 126.799 703.623 127.157C704.044 127.514 704.675 127.462 705.033 127.041L704.27 126.394L703.508 125.747ZM712.735 118.11C713.099 117.694 713.057 117.062 712.642 116.698C712.226 116.334 711.595 116.376 711.231 116.791L711.983 117.45L712.735 118.11ZM719.097 107.965C718.726 108.374 718.757 109.007 719.166 109.378C719.575 109.749 720.208 109.718 720.579 109.309L719.838 108.637L719.097 107.965ZM728.63 100.589C729.008 100.186 728.989 99.5535 728.587 99.1751C728.184 98.7967 727.551 98.8161 727.173 99.2184L727.901 99.9035L728.63 100.589ZM735.394 90.6455C735.008 91.0403 735.015 91.6735 735.41 92.0596C735.805 92.4458 736.438 92.4389 736.824 92.044L736.109 91.3448L735.394 90.6455ZM745.176 83.6822C745.57 83.2956 745.577 82.6625 745.19 82.268C744.804 81.8736 744.17 81.8671 743.776 82.2537L744.476 82.9679L745.176 83.6822ZM752.335 74.0537C751.932 74.4311 751.911 75.0639 752.289 75.4672C752.666 75.8704 753.299 75.8913 753.702 75.5139L753.019 74.7838L752.335 74.0537ZM762.419 67.5551C762.832 67.188 762.869 66.5559 762.502 66.1433C762.135 65.7307 761.502 65.6939 761.09 66.061L761.755 66.8081L762.419 67.5551ZM770.057 58.2969C769.635 58.6525 769.58 59.2834 769.936 59.7059C770.292 60.1285 770.922 60.1828 771.345 59.8272L770.701 59.062L770.057 58.2969ZM780.496 52.3592C780.929 52.0167 781.002 51.3878 780.66 50.9545C780.317 50.5213 779.689 50.4477 779.255 50.7901L779.875 51.5747L780.496 52.3592ZM788.701 43.5789C788.256 43.9063 788.161 44.5323 788.488 44.977C788.816 45.4218 789.442 45.5169 789.886 45.1895L789.294 44.3842L788.701 43.5789ZM799.531 38.3685C799.988 38.0586 800.107 37.4368 799.797 36.9797C799.487 36.5225 798.866 36.4032 798.409 36.7131L798.97 37.5408L799.531 38.3685ZM808.389 30.2577C807.919 30.5471 807.772 31.163 808.062 31.6334C808.351 32.1038 808.967 32.2506 809.437 31.9613L808.913 31.1095L808.389 30.2577ZM819.607 26.0512C820.092 25.7864 820.27 25.1788 820.005 24.6941C819.74 24.2095 819.133 24.0313 818.648 24.2961L819.128 25.1737L819.607 26.0512ZM829.254 18.8996C828.755 19.1346 828.54 19.7303 828.775 20.2301C829.01 20.7299 829.606 20.9445 830.105 20.7095L829.68 19.8046L829.254 18.8996ZM840.938 16.0757C841.454 15.8777 841.711 15.2993 841.513 14.7837C841.315 14.2681 840.737 14.0106 840.221 14.2085L840.58 15.1421L840.938 16.0757ZM851.52 10.4216C850.989 10.5727 850.68 11.1258 850.831 11.657C850.983 12.1882 851.536 12.4964 852.067 12.3453L851.793 11.3835L851.52 10.4216ZM863.465 9.75865C864.01 9.6681 864.378 9.15304 864.288 8.60823C864.197 8.06342 863.682 7.69517 863.137 7.78571L863.301 8.77218L863.465 9.75865ZM875.069 6.64598C874.517 6.65676 874.078 7.11313 874.089 7.66531C874.1 8.21749 874.556 8.65638 875.108 8.6456L875.089 7.64579L875.069 6.64598ZM1 425.576L0.806527 426.557C2.73437 426.937 4.69041 427.315 6.67382 427.691L6.85982 426.708L7.04582 425.726C5.06732 425.351 3.11627 424.974 1.19347 424.595L1 425.576ZM18.8799 428.893L18.7082 429.878C22.641 430.564 26.6654 431.238 30.7758 431.898L30.9345 430.911L31.0931 429.924C26.9914 429.265 22.9757 428.592 19.0517 427.907L18.8799 428.893ZM42.8936 432.757L42.7471 433.746C46.7002 434.331 50.7227 434.903 54.8103 435.459L54.945 434.468L55.0798 433.477C51 432.922 46.9853 432.352 43.0401 431.768L42.8936 432.757ZM67.0822 436.048L66.9587 437.04C70.9226 437.533 74.9404 438.01 79.0086 438.471L79.1211 437.477L79.2335 436.484C75.1727 436.024 71.1621 435.547 67.2056 435.055L67.0822 436.048ZM91.2185 438.78L91.1169 439.775C95.1387 440.186 99.2042 440.579 103.31 440.954L103.401 439.958L103.492 438.962C99.3933 438.588 95.3349 438.195 91.3202 437.785L91.2185 438.78ZM115.468 440.996L115.388 441.992C119.409 442.317 123.466 442.622 127.554 442.908L127.623 441.91L127.693 440.913C123.612 440.628 119.563 440.322 115.548 439.999L115.468 440.996ZM139.783 442.695L139.724 443.693C143.746 443.931 147.795 444.149 151.869 444.346L151.917 443.347L151.965 442.349C147.899 442.152 143.857 441.934 139.842 441.697L139.783 442.695ZM164.12 443.871L164.082 444.87C168.11 445.021 172.159 445.151 176.226 445.258L176.252 444.258L176.278 443.259C172.219 443.152 168.178 443.022 164.157 442.872L164.12 443.871ZM188.438 444.511L188.423 445.511C192.468 445.572 196.529 445.611 200.603 445.625L200.607 444.625L200.61 443.625C196.544 443.611 192.491 443.572 188.453 443.511L188.438 444.511ZM212.778 444.598L212.786 445.598C216.842 445.565 220.908 445.508 224.982 445.425L224.962 444.425L224.942 443.426C220.875 443.508 216.817 443.565 212.77 443.598L212.778 444.598ZM237.12 444.104L237.153 445.103C241.211 444.971 245.275 444.812 249.342 444.627L249.297 443.628L249.251 442.629C245.192 442.814 241.137 442.972 237.088 443.104L237.12 444.104ZM261.445 442.994L261.504 443.993C265.558 443.754 269.614 443.488 273.669 443.194L273.597 442.196L273.524 441.199C269.478 441.493 265.432 441.758 261.386 441.996L261.445 442.994ZM285.73 441.229L285.816 442.225C289.866 441.873 293.912 441.491 297.953 441.079L297.852 440.084L297.75 439.09C293.719 439.501 289.683 439.881 285.643 440.232L285.73 441.229ZM309.949 438.758L310.066 439.751C314.108 439.276 318.142 438.769 322.167 438.23L322.034 437.239L321.901 436.247C317.887 436.785 313.864 437.29 309.833 437.764L309.949 438.758ZM334.073 435.523L334.222 436.512C338.253 435.903 342.271 435.259 346.275 434.581L346.108 433.595L345.941 432.609C341.949 433.285 337.942 433.927 333.924 434.534L334.073 435.523ZM358.079 431.455L358.264 432.437C362.272 431.682 366.263 430.89 370.235 430.06L370.03 429.081L369.826 428.102C365.867 428.929 361.889 429.719 357.894 430.472L358.079 431.455ZM381.918 426.472L382.142 427.446C386.114 426.531 390.064 425.576 393.99 424.581L393.744 423.612L393.499 422.642C389.587 423.634 385.651 424.585 381.693 425.497L381.918 426.472ZM405.522 420.483L405.79 421.446C409.711 420.356 413.605 419.222 417.47 418.046L417.179 417.089L416.887 416.132C413.039 417.304 409.16 418.433 405.254 419.519L405.522 420.483ZM428.808 413.384L429.124 414.333C432.994 413.044 436.831 411.708 440.632 410.326L440.29 409.386L439.948 408.446C436.165 409.822 432.345 411.152 428.492 412.435L428.808 413.384ZM451.671 405.058L452.04 405.987C455.841 404.477 459.602 402.917 463.319 401.304L462.921 400.387L462.523 399.469C458.825 401.073 455.084 402.626 451.302 404.128L451.671 405.058ZM473.976 395.376L474.404 396.28C478.109 394.525 481.767 392.715 485.374 390.849L484.915 389.96L484.455 389.072C480.869 390.928 477.233 392.728 473.548 394.472L473.976 395.376ZM495.61 384.172L496.102 385.042C499.659 383.029 503.159 380.956 506.602 378.823L506.075 377.973L505.548 377.123C502.129 379.242 498.651 381.301 495.117 383.301L495.61 384.172ZM516.295 371.336L516.858 372.163C520.233 369.867 523.544 367.507 526.789 365.08L526.19 364.279L525.591 363.478C522.371 365.887 519.084 368.23 515.733 370.509L516.295 371.336ZM535.767 356.759L536.403 357.53C539.554 354.931 542.633 352.263 545.636 349.524L544.962 348.785L544.288 348.046C541.31 350.763 538.256 353.409 535.13 355.987L535.767 356.759ZM553.73 340.36L554.442 341.063C557.308 338.161 560.094 335.185 562.796 332.135L562.047 331.471L561.299 330.808C558.621 333.832 555.86 336.781 553.019 339.658L553.73 340.36ZM569.854 322.147L570.639 322.767C573.164 319.572 575.602 316.302 577.95 312.953L577.132 312.379L576.313 311.805C573.987 315.122 571.571 318.362 569.07 321.527L569.854 322.147ZM583.817 302.233L584.668 302.759C585.741 301.021 586.792 299.264 587.82 297.487L586.954 296.987L586.088 296.486C585.071 298.246 584.03 299.986 582.966 301.707L583.817 302.233ZM586.954 296.987L587.82 297.487C588.823 295.751 589.826 294.024 590.828 292.306L589.964 291.802L589.1 291.298C588.097 293.019 587.093 294.748 586.088 296.486L586.954 296.987ZM595.963 281.596L596.823 282.106C598.854 278.682 600.879 275.294 602.9 271.944L602.043 271.428L601.187 270.911C599.164 274.266 597.136 277.658 595.103 281.087L595.963 281.596ZM608.19 261.325L609.042 261.848C611.129 258.449 613.21 255.089 615.286 251.768L614.438 251.238L613.59 250.708C611.511 254.033 609.427 257.398 607.337 260.802L608.19 261.325ZM620.732 241.261L621.575 241.799C623.724 238.424 625.867 235.092 628.003 231.802L627.164 231.257L626.325 230.712C624.186 234.008 622.04 237.345 619.888 240.724L620.732 241.261ZM633.607 221.43L634.441 221.982C636.657 218.635 638.867 215.332 641.069 212.075L640.24 211.515L639.412 210.955C637.206 214.218 634.993 217.525 632.773 220.878L633.607 221.43ZM646.9 201.768L647.722 202.336C649.99 199.052 652.25 195.816 654.501 192.627L653.684 192.05L652.867 191.474C650.612 194.668 648.348 197.91 646.077 201.2L646.9 201.768ZM660.578 182.395L661.389 182.98C663.711 179.766 666.023 176.603 668.325 173.49L667.521 172.896L666.717 172.301C664.41 175.42 662.094 178.589 659.768 181.809L660.578 182.395ZM674.66 163.365L675.457 163.969C677.871 160.786 680.273 157.66 682.665 154.588L681.875 153.974L681.086 153.359C678.69 156.438 676.282 159.571 673.863 162.76L674.66 163.365ZM689.167 144.732L689.948 145.357C692.458 142.219 694.955 139.143 697.438 136.127L696.666 135.491L695.894 134.855C693.405 137.879 690.902 140.963 688.386 144.108L689.167 144.732ZM704.27 126.394L705.033 127.041C707.615 123.998 710.183 121.021 712.735 118.11L711.983 117.45L711.231 116.791C708.672 119.711 706.097 122.696 703.508 125.747L704.27 126.394ZM719.838 108.637L720.579 109.309C723.281 106.328 725.965 103.422 728.63 100.589L727.901 99.9035L727.173 99.2184C724.5 102.061 721.808 104.976 719.097 107.965L719.838 108.637ZM736.109 91.3448L736.824 92.044C739.631 89.1747 742.415 86.3878 745.176 83.6822L744.476 82.9679L743.776 82.2537C741.005 84.9694 738.21 87.7663 735.394 90.6455L736.109 91.3448ZM753.019 74.7838L753.702 75.5139C756.636 72.768 759.542 70.1156 762.419 67.5551L761.755 66.8081L761.09 66.061C758.2 68.6329 755.281 71.2966 752.335 74.0537L753.019 74.7838ZM770.701 59.062L771.345 59.8272C774.431 57.2302 777.482 54.7416 780.496 52.3592L779.875 51.5747L779.255 50.7901C776.225 53.1856 773.158 55.6872 770.057 58.2969L770.701 59.062ZM789.294 44.3842L789.886 45.1895C793.148 42.7884 796.364 40.5157 799.531 38.3685L798.97 37.5408L798.409 36.7131C795.219 38.8753 791.983 41.163 788.701 43.5789L789.294 44.3842ZM808.913 31.1095L809.437 31.9613C812.891 29.837 816.282 27.8684 819.607 26.0512L819.128 25.1737L818.648 24.2961C815.291 26.1305 811.871 28.1163 808.389 30.2577L808.913 31.1095ZM829.68 19.8046L830.105 20.7095C833.809 18.9682 837.421 17.4259 840.938 16.0757L840.58 15.1421L840.221 14.2085C836.656 15.5771 833 17.1388 829.254 18.8996L829.68 19.8046ZM851.793 11.3835L852.067 12.3453C856.009 11.2244 859.81 10.3662 863.465 9.75865L863.301 8.77218L863.137 7.78571C859.403 8.40638 855.528 9.28168 851.52 10.4216L851.793 11.3835ZM875.089 7.64579L875.108 8.6456C877.105 8.60663 879.046 8.65325 880.931 8.78275L881 7.7851L881.069 6.78746C879.122 6.65377 877.122 6.60591 875.069 6.64598L875.089 7.64579Z" fill="#FF0000"/>
</svg>
